<svg width="12" height="12" viewBox="0 0 12 12" fill="none" xmlns="http://www.w3.org/2000/svg">
<path d="M11.3333 8.33333C10.5 8.33333 9.7 8.2 8.95333 7.95333C8.72 7.88 8.46 7.93333 8.27333 8.11333L6.80667 9.58C4.92 8.62 3.37333 7.08 2.41333 5.18667L3.88 3.71333C4.06667 3.54 4.12 3.28 4.04667 3.04667C3.8 2.3 3.66667 1.5 3.66667 0.666667C3.66667 0.3 3.36667 0 3 0H0.666667C0.3 0 0 0.3 0 0.666667C0 6.92667 5.07333 12 11.3333 12C11.7 12 12 11.7 12 11.3333V9C12 8.63333 11.7 8.33333 11.3333 8.33333Z" fill="white"/>
</svg>
