<svg width="25" height="25" viewBox="0 0 25 25" fill="none" xmlns="http://www.w3.org/2000/svg">
<path d="M25 25C24.6313 24.8666 24.3065 24.7506 23.9816 24.6346C21.6581 23.7993 19.3288 22.964 17.0024 22.1287C16.7683 22.0446 16.5342 21.8938 16.303 21.8967C16.0718 21.8996 15.8406 22.0562 15.6095 22.1432C14.0146 22.7494 12.3612 22.993 10.6581 22.8538C8.03908 22.6421 5.73899 21.6676 3.793 19.9129C1.80895 18.1234 0.576975 15.9076 0.155586 13.28C-0.306772 10.3942 0.260933 7.70274 1.86455 5.2433C3.22529 3.158 5.07765 1.63245 7.4304 0.782671C11.2639 -0.603662 14.9071 -0.154119 18.2461 2.1777C20.7832 3.94977 22.3341 6.40341 22.8843 9.4313C23.4286 12.4331 22.817 15.2232 21.1343 17.7754C20.9939 17.99 20.8417 18.1959 20.6808 18.399C20.6076 18.4918 20.5988 18.5556 20.672 18.66C21.6669 20.1043 22.656 21.5545 23.6451 23.0017C24.0753 23.6311 24.5025 24.2575 24.9327 24.8869C24.9503 24.9101 24.9649 24.9362 25 25ZM18.4889 18.4135C18.5328 18.3642 18.5709 18.3178 18.606 18.2743C18.846 17.9958 19.1005 17.7261 19.3229 17.4332C21.0787 15.1362 21.7342 12.5578 21.2397 9.71843C20.8973 7.75494 19.9931 6.06118 18.5914 4.63134C15.8728 1.85577 11.7145 0.936386 8.07127 2.30532C3.74325 3.92947 1.1359 8.25379 1.77384 12.7985C2.12207 15.2899 3.28382 17.3578 5.23274 18.9587C7.47723 20.8033 10.0699 21.511 12.9582 21.1281C14.0497 20.9831 15.0798 20.6293 16.0601 20.1391C16.1245 20.1072 16.224 20.0927 16.2884 20.1159C17.4677 20.5336 18.644 20.9599 19.8204 21.3805C20.1072 21.4849 20.394 21.5864 20.6837 21.6879C20.6895 21.6792 20.6954 21.6734 20.7042 21.6647C19.9697 20.58 19.2293 19.5011 18.4889 18.4135Z" fill="#FEDD00"/>
<path d="M9.89453 14.9997C10.2428 14.9997 10.5793 14.9997 10.9246 14.9997C10.9246 13.7816 10.9246 12.578 10.9246 11.3541C10.5851 11.3541 10.2457 11.3541 9.89453 11.3541C9.89453 10.6493 9.89453 9.96484 9.89453 9.26587C10.9363 9.26587 11.9781 9.26587 13.0345 9.26587C13.0345 11.1714 13.0345 13.071 13.0345 14.9939C13.3915 14.9939 13.7339 14.9939 14.085 14.9939C14.085 15.6987 14.085 16.3832 14.085 17.0763C12.6892 17.0763 11.2992 17.0763 9.89453 17.0763C9.89453 16.3948 9.89453 15.7074 9.89453 14.9997Z" fill="#FEDD00"/>
<path d="M11.855 8.18616C11.1527 8.18616 10.5938 7.62661 10.5967 6.9279C10.5996 6.24369 11.1644 5.68994 11.8609 5.68994C12.5573 5.68994 13.1221 6.24949 13.1192 6.9337C13.1133 7.63531 12.5573 8.18905 11.855 8.18616Z" fill="#FEDD00"/>
</svg>
