<?xml version="1.0" encoding="UTF-8"?>
<!DOCTYPE svg PUBLIC "-//W3C//DTD SVG 1.1//EN" "http://www.w3.org/Graphics/SVG/1.1/DTD/svg11.dtd">
<!-- Creator: CorelDRAW X5 -->
<svg xmlns="http://www.w3.org/2000/svg" xml:space="preserve" width="42.5405mm" height="66.9553mm" shape-rendering="geometricPrecision" text-rendering="geometricPrecision" image-rendering="optimizeQuality" fill-rule="evenodd" clip-rule="evenodd"
viewBox="0 0 43235 68049"
 xmlns:xlink="http://www.w3.org/1999/xlink">
 <defs>
      <linearGradient id="id0" gradientUnits="userSpaceOnUse" x1="2951.84" y1="24206.1" x2="20604.8" y2="24206.1">
       <stop offset="0" stop-color="#EDEDED"/>
       <stop offset="1" stop-color="#CDCDCE"/>
      </linearGradient>
      <linearGradient id="id1" gradientUnits="userSpaceOnUse" x1="2951.84" y1="51315.9" x2="20604.8" y2="51315.9">
       <stop offset="0" stop-color="#E6E3E3"/>
       <stop offset="1" stop-color="#D6D6D6"/>
      </linearGradient>
      <linearGradient id="id2" gradientUnits="userSpaceOnUse" x1="22167.1" y1="13775.1" x2="40746.7" y2="34637.3">
       <stop offset="0" stop-color="#EBEBEB"/>
       <stop offset="1" stop-color="#C7C7C7"/>
      </linearGradient>
      <mask id="id3">
        <linearGradient id="id4" gradientUnits="userSpaceOnUse" x1="26187.2" y1="62414.8" x2="20766.9" y2="41063.9">
         <stop offset="0" stop-opacity="1" stop-color="white"/>
         <stop offset="1" stop-opacity="0" stop-color="white"/>
        </linearGradient>
       <rect fill="url(#id4)" x="18093" y="38848" width="10767" height="25783"/>
      </mask>
      <mask id="id5">
        <linearGradient id="id6" gradientUnits="userSpaceOnUse" x1="26282.7" y1="60452.8" x2="26446.7" y2="43519.8">
         <stop offset="0" stop-opacity="1" stop-color="white"/>
         <stop offset="1" stop-opacity="0.4" stop-color="white"/>
        </linearGradient>
       <rect fill="url(#id6)" x="22720" y="38748" width="7289" height="26476"/>
      </mask>
      <mask id="id7">
        <linearGradient id="id8" gradientUnits="userSpaceOnUse" x1="28411.3" y1="63192.1" x2="27772.5" y2="41720.8">
         <stop offset="0" stop-opacity="0.576471" stop-color="white"/>
         <stop offset="1" stop-opacity="0" stop-color="white"/>
        </linearGradient>
       <rect fill="url(#id8)" x="25026" y="38728" width="6132" height="27458"/>
      </mask>
      <mask id="id9">
        <linearGradient id="id10" gradientUnits="userSpaceOnUse" x1="38855.9" y1="63708.2" x2="36120.9" y2="42433.1">
         <stop offset="0" stop-opacity="1" stop-color="white"/>
         <stop offset="1" stop-opacity="0" stop-color="white"/>
        </linearGradient>
       <rect fill="url(#id10)" x="34118" y="38843" width="6742" height="28455"/>
      </mask>
      <mask id="id11">
        <linearGradient id="id12" gradientUnits="userSpaceOnUse" x1="27576.6" y1="65418.8" x2="25125.4" y2="38594.3">
         <stop offset="0" stop-opacity="1" stop-color="white"/>
         <stop offset="1" stop-opacity="0" stop-color="white"/>
        </linearGradient>
       <rect fill="url(#id12)" x="22707" y="38768" width="7289" height="26476"/>
      </mask>
      <mask id="id13">
        <linearGradient id="id14" gradientUnits="userSpaceOnUse" x1="29762.9" y1="66245.7" x2="26496.6" y2="38546.1">
         <stop offset="0" stop-opacity="1" stop-color="white"/>
         <stop offset="1" stop-opacity="0" stop-color="white"/>
        </linearGradient>
       <rect fill="url(#id14)" x="25005" y="38608" width="6249" height="27575"/>
      </mask>
      <mask id="id15">
        <linearGradient id="id16" gradientUnits="userSpaceOnUse" x1="30156.4" y1="67188.5" x2="29569.7" y2="38820.6">
         <stop offset="0" stop-opacity="1" stop-color="white"/>
         <stop offset="0.670588" stop-opacity="0.501961" stop-color="white"/>
         <stop offset="1" stop-opacity="0" stop-color="white"/>
        </linearGradient>
       <rect fill="url(#id16)" x="27410" y="38821" width="4907" height="28366"/>
      </mask>
 </defs>
 <g id="Слой_x0020_1">
  <metadata id="CorelCorpID_0Corel-Layer"/>
  <g id="_228545760">
   <rect fill="none" stroke="#B3B3B3" stroke-width="172.065" x="86" y="86" width="43063" height="67119"/>
   <g>
    <rect fill="none" stroke="#B3B3B3" stroke-width="172.065" x="86" y="86" width="43063" height="67119"/>
    <rect fill="none" stroke="#B3B3B3" stroke-width="172.065" x="86" y="86" width="43063" height="67119"/>
    <rect fill="#003399" x="86" y="86" width="43026" height="9896"/>
    <rect fill="none" stroke="#B3B3B3" stroke-width="172.065" x="86" y="86" width="43063" height="67119"/>
    <text x="8491" y="6519"  fill="white" font-weight="bold" font-size="3554.12" font-family="Arial">ИНФОРМАЦИЯ</text>
    <g>
     <rect fill="url(#id0)" x="2952" y="11597" width="17653" height="25218"/>
     <rect fill="url(#id1)" x="2952" y="38707" width="17653" height="25218"/>
     <rect fill="url(#id2)" x="22631" y="11597" width="17653" height="25218"/>
    </g>
    <g>
     <rect fill="#E6E6E6" x="28527" y="37659" width="5860" height="27213"/>
     <path fill="#003399" fill-rule="nonzero" stroke="#B3B3B3" stroke-width="86.0835" d="M40405 42454l-6234 -3568c-6,30 -10,68 -10,114l0 23866c0,162 51,340 133,495 78,147 177,268 278,326l6234 3568c6,-30 10,-68 10,-114l0 -23866c0,-162 -51,-339 -133,-495 -78,-147 -177,-268 -278,-326zm-5833 -4166l6256 3580c216,124 407,342 539,592 128,242 207,522 207,782l0 23866c0,229 -61,423 -164,567l-2 0c-63,87 -140,157 -230,207 -98,55 -206,86 -319,91 -146,6 -301,-32 -454,-119l-6256 -3580c-216,-124 -407,-341 -539,-592 -128,-242 -207,-522 -207,-782l0 -23866c0,-229 61,-423 164,-567l2 0c63,-87 140,-157 230,-207 98,-55 206,-86 319,-91 146,-6 301,32 454,119z"/>
     <path fill="#CCCCCC" fill-rule="nonzero" stroke="#B3B3B3" stroke-width="86.0835" mask="url(#id3)" d="M28308 38893l-9595 977c-155,16 -299,97 -405,215 -106,118 -172,271 -172,430l0 23607c0,25 1,44 2,55l0 1c12,121 66,224 145,296l1 0c79,71 186,114 306,114 25,0 43,-1 55,-2l9595 -977c155,-16 299,-97 405,-215 106,-118 172,-271 172,-430l0 -23607c0,-25 -1,-44 -2,-55l0 -1c-12,-121 -66,-224 -145,-296l-1 0c-79,-71 -186,-114 -306,-114 -25,0 -43,1 -55,2z"/>
     <path fill="#CCCCCC" fill-rule="nonzero" stroke="#B3B3B3" stroke-width="86.0835" mask="url(#id5)" d="M29814 38798l0 1 -6660 1651 -1 0c-99,24 -194,100 -267,201 -76,105 -123,233 -123,357l0 23998c0,45 5,82 15,110l1 1c8,23 19,40 30,50 7,6 19,11 35,13 20,3 44,1 70,-5l0 -1 6660 -1651c100,-25 195,-100 268,-201 76,-105 123,-233 123,-357l0 -23998c0,-44 -6,-82 -17,-112 -8,-23 -19,-40 -30,-50 -7,-6 -20,-11 -35,-13 -20,-3 -44,-1 -70,5z"/>
     <path fill="#CCCCCC" fill-rule="nonzero" stroke="#B3B3B3" stroke-width="86.0835" mask="url(#id7)" d="M31106 38771l-5663 2631c-92,43 -182,149 -253,284 -74,143 -121,313 -121,475l0 23866c0,46 3,84 9,115l5663 -2631c92,-43 182,-149 253,-284 74,-143 121,-313 121,-475l0 -23866c0,-46 -3,-84 -9,-115z"/>
     <path fill="#CCCCCC" fill-rule="nonzero" stroke="#B3B3B3" stroke-width="86.0835" mask="url(#id9)" d="M40405 42454l-6234 -3568c-6,30 -10,68 -10,114l0 23866c0,162 51,340 133,495 78,147 177,268 278,326l6234 3568c6,-30 10,-68 10,-114l0 -23866c0,-162 -51,-339 -133,-495 -78,-147 -177,-268 -278,-326z"/>
     <path fill="#003399" fill-rule="nonzero" stroke="#B3B3B3" stroke-width="86.0835" d="M18646 39187l9595 -977c48,-5 89,-7 123,-7 296,0 565,109 769,294l-1 1c202,183 337,440 367,735l0 0c5,47 7,89 7,125l0 23607c0,334 -134,650 -349,890 -215,239 -515,405 -848,439l-9595 977c-48,5 -89,7 -123,7 -296,0 -565,-109 -769,-294l1 -1c-202,-183 -337,-440 -367,-735l0 0c-5,-47 -7,-89 -7,-125l0 -23607c0,-334 134,-650 349,-890 215,-239 515,-405 848,-439zm9662 -294l-9595 977c-155,16 -299,97 -405,215 -106,118 -172,271 -172,430l0 23607c0,25 1,44 2,55l0 1c12,121 66,224 145,296l1 0c79,71 186,114 306,114 25,0 43,-1 55,-2l9595 -977c155,-16 299,-97 405,-215 106,-118 172,-271 172,-430l0 -23607c0,-25 -1,-44 -2,-55l0 -1c-12,-121 -66,-224 -145,-296l-1 0c-79,-71 -186,-114 -306,-114 -25,0 -43,1 -55,2z"/>
     <path fill="#003399" fill-rule="nonzero" stroke="#B3B3B3" stroke-width="86.0835" d="M22915 39775l6660 -1651 1 0c105,-26 209,-32 308,-20 163,20 313,88 438,194 121,103 215,239 272,400 38,109 60,228 60,353l0 23998c0,261 -92,518 -239,722 -150,208 -363,367 -602,426l-6660 1651 -1 0c-105,26 -209,32 -308,20 -163,-20 -313,-88 -438,-194 -121,-103 -215,-239 -272,-400l1 0c-39,-110 -60,-230 -60,-353l0 -23998c0,-261 91,-518 239,-722 150,-207 362,-366 602,-426l0 -1zm6899 -977l0 1 -6660 1651 -1 0c-99,24 -194,100 -267,201 -76,105 -123,233 -123,357l0 23998c0,45 5,82 15,110l1 1c8,23 19,40 30,50 7,6 19,11 35,13 20,3 44,1 70,-5l0 -1 6660 -1651c100,-25 195,-100 268,-201 76,-105 123,-233 123,-357l0 -23998c0,-44 -6,-82 -17,-112 -8,-23 -19,-40 -30,-50 -7,-6 -20,-11 -35,-13 -20,-3 -44,-1 -70,5z"/>
     <path fill="#CCCCCC" fill-rule="nonzero" stroke="#B3B3B3" stroke-width="86.0835" mask="url(#id11)" d="M29800 38818l0 1 -6660 1651 -1 0c-99,24 -194,100 -267,201 -76,105 -123,233 -123,357l0 23998c0,45 5,82 15,110l1 1c8,23 19,40 30,50 7,6 19,11 35,13 20,3 44,1 70,-5l0 -1 6660 -1651c100,-25 195,-100 268,-201 76,-105 123,-233 123,-357l0 -23998c0,-44 -6,-82 -17,-112 -8,-23 -19,-40 -30,-50 -7,-6 -20,-11 -35,-13 -20,-3 -44,-1 -70,5z"/>
     <path fill="#003399" fill-rule="nonzero" stroke="#B3B3B3" stroke-width="86.0835" d="M25058 40752l5683 -2640c139,-65 279,-79 412,-51 103,22 201,69 290,139 82,64 152,145 209,241l1 0c94,159 149,362 149,591l0 23866c0,260 -72,528 -188,751 -120,231 -293,420 -489,511l-5683 2640c-139,65 -279,79 -412,51 -103,-22 -201,-69 -290,-139 -82,-64 -152,-145 -209,-241l-1 0c-94,-159 -149,-362 -149,-591l0 -23866c0,-260 72,-528 188,-751 120,-231 293,-419 489,-511zm6048 -1981l-5663 2631c-92,43 -182,149 -253,284 -74,143 -121,313 -121,475l0 23866c0,46 3,84 9,115l5663 -2631c92,-43 182,-149 253,-284 74,-143 121,-313 121,-475l0 -23866c0,-46 -3,-84 -9,-115z"/>
     <path fill="#CCCCCC" fill-rule="nonzero" mask="url(#id13)" d="M31144 38710l-5663 2631c-92,43 -182,149 -253,284 -74,143 -121,313 -121,475l0 23866c0,46 3,84 9,115l5663 -2631c92,-43 182,-149 253,-284 74,-143 121,-313 121,-475l0 -23866c0,-46 -3,-84 -9,-115z"/>
     <path fill="#003399" fill-rule="nonzero" stroke="#B3B3B3" stroke-width="86.0835" d="M27284 41882l4650 -3764c92,-74 189,-112 287,-115 141,-5 277,50 400,159 96,84 173,195 229,328 70,167 112,386 112,637l0 23495c0,295 -54,606 -141,869 -91,277 -225,511 -379,635l-4650 3764c-92,74 -189,112 -287,115 -141,5 -276,-50 -400,-159 -95,-84 -173,-195 -229,-328 -70,-167 -112,-386 -112,-637l0 -23495c0,-295 54,-605 141,-869 91,-277 225,-511 379,-635zm4988 -3018l-4480 3627c-83,67 -164,221 -228,416 -69,208 -111,452 -111,681l0 23495c0,22 0,42 1,62l4480 -3627c83,-67 164,-221 228,-416 69,-208 111,-452 111,-681l0 -23495c0,-22 0,-42 -1,-62z"/>
     <path fill="#CCCCCC" fill-rule="nonzero" stroke="#B3B3B3" stroke-width="86.0835" mask="url(#id15)" d="M32273 38864l-4480 3627c-83,67 -164,221 -228,416 -69,208 -111,452 -111,681l0 23495c0,22 0,42 1,62l4480 -3627c83,-67 164,-221 228,-416 69,-208 111,-452 111,-681l0 -23495c0,-22 0,-42 -1,-62z"/>
    </g>
   </g>
  </g>
 </g>
</svg>
