<svg width="15" height="15" viewBox="0 0 15 15" fill="none" xmlns="http://www.w3.org/2000/svg">
<path d="M14.1667 10.4167C13.125 10.4167 12.125 10.25 11.1917 9.94167C10.9 9.85 10.575 9.91667 10.3417 10.1417L8.50833 11.975C6.15 10.775 4.21667 8.85 3.01667 6.48333L4.85 4.64167C5.08333 4.425 5.15 4.1 5.05833 3.80833C4.75 2.875 4.58333 1.875 4.58333 0.833333C4.58333 0.375 4.20833 0 3.75 0H0.833333C0.375 0 0 0.375 0 0.833333C0 8.65833 6.34167 15 14.1667 15C14.625 15 15 14.625 15 14.1667V11.25C15 10.7917 14.625 10.4167 14.1667 10.4167Z" fill="white"/>
</svg>
